<svg xmlns="http://www.w3.org/2000/svg" viewBox="0 0 640 400" fill="none">
  <defs>
    <pattern id="grid" width="24" height="24" patternUnits="userSpaceOnUse"><circle cx="1" cy="1" r="1" fill="#8c9ca2" opacity=".35"/></pattern>
    <linearGradient id="silver" x1="250" y1="90" x2="410" y2="290" gradientUnits="userSpaceOnUse"><stop stop-color="#f8faf9"/><stop offset=".28" stop-color="#d3dde1"/><stop offset=".48" stop-color="#72858e"/><stop offset=".5" stop-color="#f6f7f3"/><stop offset="1" stop-color="#a0b6c0"/></linearGradient>
  </defs>
  <path fill="#eaeae2" d="M0 0h640v400H0z"/>
  <path fill="url(#grid)" d="M0 0h640v400H0z"/>
  <g stroke="#667e89" stroke-width="2">
    <path d="M250 146H166l-48-48H32m218 72H122l-40 40H32m218-16H162l-54 54H32m218-30H196l-76 76H58M390 146h72l48-48h98m-218 72h124l40 40h54m-218-16h76l54 54h88m-218-30h52l76 76h60"/>
    <path d="M280 116V82l-34-34m58 68V48m24 68V70l24-24m-72 222v50l-34 34m58-84v84m24-84v44l40 40"/>
  </g>
  <g stroke="#416474" fill="#eaeae2" stroke-width="2">
    <circle cx="32" cy="98" r="5"/><circle cx="32" cy="210" r="5"/><circle cx="32" cy="248" r="5"/><circle cx="58" cy="294" r="5"/>
    <circle cx="608" cy="98" r="5"/><circle cx="608" cy="210" r="5"/><circle cx="608" cy="248" r="5"/><circle cx="578" cy="294" r="5"/>
  </g>
  <rect x="257" y="123" width="146" height="158" rx="3" fill="#1d1c19" opacity=".12"/>
  <rect x="250" y="116" width="140" height="152" rx="3" fill="url(#silver)" stroke="#46565f"/>
  <rect x="267" y="133" width="106" height="118" fill="#e9eeec" stroke="#637883"/>
  <path d="M284 158h72v65h-72z" stroke="#7e99a6"/>
  <path d="M292 182h56m-44-16v40m16-40v40m16-40v40" stroke="#8da8b4"/>
  <circle cx="278" cy="144" r="3" fill="#bd3524"/>
  <g stroke="#8a989d"><path d="M220 112V82h200v30M220 86l4-8m192 8 4-8M442 118h20v150h-20"/><path d="M36 36h18m-9-9v18m532 300h18m-9-9v18"/></g>
  <g fill="#416474" font-family="monospace" font-size="11" letter-spacing="1"><text x="38" y="365">TRACE / PAD / PACKAGE</text><text x="490" y="365">LAYOUT STUDY</text></g>
</svg>
